<svg width="276" height="50" viewBox="0 0 276 50" fill="none" xmlns="http://www.w3.org/2000/svg" role="img" aria-labelledby="blogue-title">
<title id="blogue-title">BLOGUE</title>
<rect width="276" height="50" fill="#DC143CFF"/>
<path d="M92.917 10.564L98.048 10.564Q104.069 10.564 104.069 18.041Q104.069 20.898 103.287 22.28Q102.505 23.663 100.522 24.373Q102.796 25.282 103.633 26.701Q104.488 28.102 104.488 30.922Q104.488 38.654 97.866 38.654L92.917 38.654ZM96.483 22.935Q98.684 22.935 99.539 21.916Q100.394 20.843 100.394 18.15Q100.394 13.602 97.12 13.602L96.829 13.602L96.665 13.602Q96.519 13.602 96.483 13.62ZM96.483 35.416Q98.812 35.416 99.703 34.415Q100.595 33.415 100.595 30.795Q100.595 28.102 99.667 27.029Q98.757 25.937 96.483 25.937ZM108.254 10.564L112.038 10.564L112.038 35.452L118.224 35.452L118.224 38.654L108.254 38.654ZM134.652 25.3Q134.652 32.742 132.997 35.871Q131.341 39 127.448 39Q123.354 39 121.681 35.634Q120.025 32.341 120.025 23.936Q120.025 16.44 121.662 13.329Q123.318 10.2 127.266 10.2Q130.795 10.2 132.506 12.62Q133.634 14.239 134.143 17.223Q134.652 19.988 134.652 25.3ZM130.686 25.701Q130.686 18.405 130.031 16.022Q129.376 13.62 127.357 13.62Q125.337 13.62 124.664 15.822Q124.009 18.041 124.009 24.736Q124.009 30.904 124.701 33.287Q125.41 35.543 127.357 35.543Q129.267 35.543 129.977 33.433Q130.686 31.341 130.686 25.701ZM145.132 23.881L152.009 23.881L152.009 24.973Q152.009 33.178 150.572 36.053Q149.152 39 145.259 39Q141.238 39 139.528 35.725Q137.836 32.45 137.836 24.718Q137.836 15.876 139.692 12.947Q141.439 10.2 145.059 10.2Q147.824 10.2 149.371 11.528Q150.935 12.874 151.809 15.949L148.279 17.423Q148.043 16.313 147.752 15.558Q147.461 14.803 147.115 14.384Q146.423 13.529 145.041 13.529Q143.149 13.529 142.457 15.858Q141.766 18.296 141.766 24.609Q141.766 30.995 142.476 33.251Q143.185 35.507 145.15 35.507Q146.951 35.507 147.679 33.906Q148.425 32.196 148.425 28.411L148.425 27.647L148.425 27.083L145.132 27.083ZM155.775 10.564L159.486 10.564L159.486 30.413Q159.486 33.451 160.032 34.452Q160.596 35.452 162.252 35.452Q163.907 35.452 164.435 34.579Q164.981 33.688 164.981 30.959L164.981 10.564L168.692 10.564L168.692 30.959Q168.692 35.543 167.291 37.162Q165.617 39 162.179 39Q158.395 39 156.848 36.635Q155.775 35.016 155.775 30.413ZM173.022 10.564L183.083 10.564L183.083 13.766L176.806 13.766L176.806 22.662L182.373 22.662L182.373 25.864L176.806 25.864L176.806 35.452L183.083 35.452L183.083 38.654L173.022 38.654Z" fill="white"/>
</svg>
