<svg width="232" height="175" viewBox="148 0 163 122" fill="none" xmlns="http://www.w3.org/2000/svg">
    <g xmlns="http://www.w3.org/2000/svg" fill="none">
        <defs></defs>
        <path fill-rule="evenodd" clip-rule="evenodd" d="M 283.717 119.403 C 296.491 116.251 309 108.782 309 88.655 C 309 71.099 303.734 61.444 296.711 61.444 C 303.734 61.444 309 50.911 309 33.355 C 309 23.7 304.611 0 265.112 0 L 224.223 0 L 204.034 20.189 L 227.002 20.189 L 239.474 7.717 L 239.914 7.278 L 240.535 7.278 L 254.579 7.278 L 267.746 7.278 C 272.778 7.278 280.738 8.637 287.493 12.644 C 294.318 16.693 299.967 23.499 299.967 34.233 C 299.967 46.038 295.847 53.156 289.512 57.22 C 286.64 59.063 283.369 60.238 279.938 60.969 C 283.424 62.094 286.717 63.716 289.591 65.831 C 295.739 70.355 299.967 77.145 299.967 86.021 C 299.967 93.734 297.923 100.765 292.713 105.856 C 289.087 109.4 284.047 111.887 277.386 113.071 L 283.717 119.403 Z M 224.759 60.444 L 215.225 50.911 L 259.309 50.911 L 249.775 60.444 L 224.759 60.444 Z M 235.414 71.099 L 226.759 62.444 L 250.189 62.444 L 250.604 62.444 L 250.897 62.151 L 262.137 50.911 L 268.623 50.911 C 281.789 50.911 287.056 43.011 287.056 35.111 C 287.056 26.333 283.545 20.189 268.623 20.189 L 231.245 20.189 L 241.156 10.278 L 254.579 10.278 L 267.746 10.278 C 272.369 10.278 279.77 11.551 285.962 15.225 C 292.084 18.856 296.967 24.778 296.967 34.233 C 296.967 45.25 293.188 51.298 287.892 54.695 C 282.459 58.18 275.152 59.066 267.746 59.066 L 267.746 62.066 C 274.937 62.066 282.294 64.186 287.813 68.248 C 293.296 72.282 296.967 78.22 296.967 86.021 C 296.967 93.23 295.062 99.366 290.616 103.711 C 287.174 107.074 282.063 109.508 274.753 110.438 L 266.136 101.821 L 268.623 101.821 C 280.034 101.821 287.056 93.043 287.056 86.021 C 287.056 78.999 283.545 71.099 268.623 71.099 L 235.414 71.099 Z M 184.503 20.189 L 174.592 10.278 L 188.747 10.278 L 189.368 10.278 L 189.807 9.838 L 199.645 0 L 219.98 0 L 199.792 20.189 L 184.503 20.189 Z M 163.036 21.349 L 171.347 29.66 L 171.347 55.656 L 151 76.002 L 151 50.401 L 162.596 38.805 L 163.036 38.365 L 163.036 37.744 L 163.036 21.349 Z M 171.592 7.278 L 188.125 7.278 L 195.403 0 L 171.347 0 L 164.315 0 L 171.592 7.278 Z M 151.002 0 L 151 0 L 151 0.002 L 151.002 0 Z M 151 9.313 L 160.036 18.349 L 160.036 37.123 L 151 46.158 L 151 9.313 Z M 243.422 101.735 L 263.769 122.081 C 262.476 122.118 260.793 122.106 259.356 122.082 L 244.484 122.082 L 224.137 101.735 L 243.422 101.735 Z M 151 80.245 L 151 122.08 L 151 122.082 L 213.908 122.082 L 205.681 113.854 L 161.536 113.854 L 160.036 113.854 L 160.036 112.354 L 160.036 98.31 L 160.036 97.689 L 160.475 97.249 L 171.347 86.378 L 171.347 59.898 L 151 80.245 Z M 171.347 90.62 L 163.036 98.931 L 163.036 110.854 L 206.302 110.854 L 206.923 110.854 L 207.363 111.293 L 218.151 122.082 L 240.241 122.082 L 219.894 101.735 L 171.347 101.735 L 171.347 90.62 Z" fill="#F71B3A"></path>
    </g>
</svg>
